<svg width="64" height="64" version="1.1" viewBox="0 0 48 48" xmlns="http://www.w3.org/2000/svg">
    <path d="m15.94257 5.023912a1.5 1.5 0 0 0-2.12132 0 1.5 1.5 0 0 0 0 2.12132 1.5 1.5 0 0 0 2.12132 0 1.5 1.5 0 0 0 0-2.12132m3.181981-1.06066a5 5 0 0 1 0 7.071068c-1.202082 1.202081-2.863783 1.661701-4.412346 1.385929 1.011162 1.223295 2.015254 2.736503 2.644579 4.624478 1.06066 3.181981 3.18198 2.474874 3.18198 2.474874s-7.071067 5.656854-11.31371 1.414214l-4.242641-4.242641s-3.535534-3.535534 0-7.071068c2.12132-2.12132 4.949748-0.7071068 5.656854-2.828427-2.828427-2.828427-0.353553-5.303301-0.353553-5.303301 0.353553 1.06066 1.230366 1.937473 2.015254 2.227386a5.02 5.02 0 0 1 6.823581 0.2474874z" fill="rgba(191,162,48,0.404)"/>
</svg>